<svg xmlns="http://www.w3.org/2000/svg" width="28.083" height="10.37" viewBox="0 0 28.083 10.37">
  <path d="M391.344,364.468l-3.866,5.281-4.526,3.206-5.375,1.415h28.007a15.068,15.068,0,0,1-7.733-3.018,42.4,42.4,0,0,1-5.092-5.564Z" transform="translate(-377.5 -364)" fill="#fff"/>
  <path d="M28.492,10.848a13.066,13.066,0,0,1-5.83-1.381,13.07,13.07,0,0,1-4.592-3.849L15.3,1.9a1,1,0,0,0-1.6,0L10.924,5.619A13.064,13.064,0,0,1,6.332,9.468,13.065,13.065,0,0,1,.5,10.848v-1a12.052,12.052,0,0,0,9.62-4.827L12.893,1.3a2,2,0,0,1,3.207,0l2.771,3.717a12.056,12.056,0,0,0,9.621,4.827Z" transform="translate(-0.502 -0.5)" fill="#f18121"/>
</svg>
