<svg xmlns="http://www.w3.org/2000/svg" width="24.5" height="4.909" viewBox="0 0 24.5 4.909"><g transform="translate(-340.5 -278.999)"><path d="M24.5,5.74H0v-1H1.465a11.508,11.508,0,0,0,5.852-1.6l3.316-1.96A2.5,2.5,0,0,1,13.2,1.2l3.083,1.873A11.5,11.5,0,0,0,22.258,4.74H24.5Z" transform="translate(340.5 278.168)" fill="#fff"/><path d="M24.5,5.74H22.258a12.5,12.5,0,0,1-6.491-1.817L12.684,2.05a1.5,1.5,0,0,0-1.542-.009L7.826,4A12.508,12.508,0,0,1,1.465,5.74H0v-1H1.465a11.508,11.508,0,0,0,5.852-1.6l3.316-1.96A2.5,2.5,0,0,1,13.2,1.2l3.083,1.873A11.5,11.5,0,0,0,22.258,4.74H24.5Z" transform="translate(340.5 278.168)" fill="#f18121"/></g></svg>